<?xml version="1.0" encoding="utf-8"?>
<!-- Generator: Adobe Illustrator 22.0.1, SVG Export Plug-In . SVG Version: 6.00 Build 0)  -->
<svg version="1.1" xmlns="http://www.w3.org/2000/svg" xmlns:xlink="http://www.w3.org/1999/xlink" x="0px" y="0px"
	 viewBox="0 0 103 36" style="enable-background:new 0 0 103 36;" xml:space="preserve">
<style type="text/css">
	.st0{enable-background:new    ;}
	.st1{fill-rule:evenodd;clip-rule:evenodd;fill:#41B883;}
	.st2{fill:#FFFFFF;}
</style>
<g id="Ellipse_1_copy_1_" class="st0">
	<g id="Ellipse_1_copy">
		<g>
			<circle class="st1" cx="17" cy="17" r="17"/>
		</g>
	</g>
</g>
<g id="B_itnyx">
	<g>
		<path class="st2" d="M23.4,16.1c-1.9,0-2.9-0.5-2.9-1.5c0-0.9,0.9-1.4,2.8-1.4c0.4,0,0.9,0,1.3,0.1c0.7-0.7,1-1.7,1-3
			C25.6,8.1,24,7,20.9,7c-1.6,0-3.2,0.4-4.6,1c-0.5,0.3-1,0.5-1.5,0.7C14.4,9,14,9.1,13.6,9.1S13.1,9,13.1,8.7
			c0-0.3,0.2-0.6,0.6-1.2c0.4-0.5,1-1,1.7-1.5c1.8-1.3,3.9-1.9,6.3-1.9c3.1,0,5.3,0.6,6.8,1.8c1.2,1,1.9,2.4,1.9,4.2
			c0,2-1,3.6-3,4.7c1.9,1.1,3.1,2.5,3.4,4c0.1,0.6,0.2,1.3,0.2,2.2s-0.3,1.8-0.8,2.6c-0.5,0.8-1.2,1.5-2,2.1
			c-1.7,1.1-3.8,1.6-6.5,1.6c-1.9,0-3.9-0.4-6.2-1.3c-1.5-0.6-2.6-1.2-3.4-2c-0.4-0.4-0.5-0.8-0.5-1.1c0-0.4,0.2-0.6,0.6-0.6
			s1.1,0.1,2.1,0.4v0c0-1.6,0.2-3.2,0.5-4.8c0.6-2.9,1.3-5.1,2.2-6.7c0.9-1.8,1.8-2.7,2.7-2.7c0.3,0,0.4,0.5,0.4,1.4
			s-0.1,1.8-0.3,2.8c-0.2,0.9-0.4,1.9-0.5,2.8c-0.2,0.9-0.4,1.7-0.5,2.5s-0.3,1.3-0.3,1.6L18.2,24c1.2,0.3,2.2,0.5,3,0.5
			c0.8,0,1.6-0.1,2.2-0.4c1.7-0.7,2.5-1.9,2.5-3.7c0-1-0.1-1.9-0.3-2.6c-0.2-0.7-0.6-1.3-1.1-1.8C24,16.1,23.7,16.1,23.4,16.1z"/>
		<path class="st2" d="M39.3,26.8c-2,0-3-1.9-3-5.6c0-2,0.3-3.9,0.8-5.6c0.8-2.6,1.7-3.8,2.6-3.8c0.6,0,1,0.4,1.4,1.2
			c0.3,0.6,0.4,1.2,0.4,1.8c0,0.8-0.2,2.2-0.7,4.2c-0.5,1.8-0.7,2.9-0.7,3.3s0.1,0.7,0.3,0.9s0.5,0.2,0.8,0.2s0.7-0.2,1.1-0.6
			c0.4-0.4,0.9-0.8,1.3-1.2s0.8-0.9,1.2-1.2c0.4-0.4,0.6-0.6,0.8-0.6c0.3,0,0.4,0.3,0.4,1c0,1.4-0.7,2.8-2.1,4.1
			S40.9,26.8,39.3,26.8z M40.5,9.3c-0.5-0.8-0.8-1.7-0.8-2.6s0.1-1.7,0.4-2.3c0.3-0.6,0.6-1.1,0.8-1.4c0.3-0.3,0.6-0.4,0.9-0.4
			c0.6,0,1.1,0.4,1.5,1.2c0.5,0.8,0.7,1.5,0.7,2.1c0,1-0.4,1.9-1.1,2.4C42.2,9,41.4,9.3,40.5,9.3z"/>
		<path class="st2" d="M45.7,25c-0.2-0.5-0.4-1.2-0.5-1.9c-0.1-0.7-0.1-1.7-0.1-3c0-1.3,0.2-3,0.7-5.2h-1.4c-0.2,0-0.4-0.1-0.4-0.3
			c0-0.5,0-0.9,0.1-1.2c0.1-0.3,0.3-0.7,0.6-1.1h0.7c0.3,0,0.6,0,0.9,0c1-3.1,1.9-4.6,2.9-4.6c0.8,0,1.4,0.5,1.7,1.5
			c0.1,0.3,0.2,0.6,0.3,0.9l-1.2,2.2c1.4,0,2.3,0.1,2.7,0.1c0.4,0,0.6,0,0.6,0.1c0,0.1,0,0.2,0,0.3c0,0.4-0.1,0.8-0.3,1.3
			S52.8,15,52.6,15l-3-0.1c-0.4,2.4-0.6,4.5-0.6,6.1s0.2,2.4,0.7,2.4c0.4,0,1.1-0.3,2.1-0.9s1.7-1.2,2.2-1.8
			c0.4-0.6,0.8-0.9,1.1-0.9c0.3,0,0.4,0.3,0.4,1s-0.2,1.4-0.7,2.1c-0.5,0.7-1.1,1.4-1.8,2s-1.5,1.1-2.4,1.5
			c-0.9,0.4-1.7,0.6-2.3,0.6s-1.2-0.2-1.5-0.5C46.3,26,46,25.6,45.7,25z"/>
		<path class="st2" d="M57.9,11.7c0.7,0,1.4,0.7,2,2.1c0.9-1,2.1-1.5,3.5-1.5c1.4,0,2.4,0.3,3.1,0.9c0.7,0.6,1.1,1.5,1.1,2.6
			s-0.1,2.2-0.4,3.4s-0.5,2-0.6,2.4s-0.2,0.9-0.2,1.2s0.1,0.5,0.3,0.5c0.3,0,0.7-0.2,1.1-0.6c0.4-0.4,0.9-0.8,1.3-1.2
			c0.4-0.5,0.8-0.9,1.2-1.2c0.4-0.4,0.6-0.6,0.8-0.6c0.3,0,0.4,0.3,0.4,1c0,1.4-0.7,2.8-2.1,4c-2.3,1.4-3.8,2-4.4,2
			c-0.1,0-0.1,0-0.1,0c-1.6,0-2.4-1.3-2.4-3.8c0-1.1,0.1-2.1,0.3-3c0.2-0.9,0.4-1.6,0.5-2c0.1-0.4,0.2-0.8,0.2-1.3
			c0-0.7-0.4-1.1-1.2-1.1s-1.6,0.6-2.4,1.8s-1.3,2.5-1.5,3.8v0.2c0,0.7,0.1,1.4,0.3,2.1c0.2,0.7,0.3,1.2,0.3,1.5
			c0,0.7-0.9,1.3-2.5,2c-0.3,0.1-0.5,0.2-0.7,0.2c-0.5,0-0.8-0.3-1-0.8c-0.2-0.5-0.3-1.3-0.3-2.4c0-2.8,0.1-4.9,0.3-6.1
			c0.3-1.9,1-3.6,2-5.3C57.1,12,57.5,11.7,57.9,11.7z"/>
		<path class="st2" d="M78.1,24.5c-1,1.4-2.3,2.1-4,2.1c-1.4,0-2.4-0.3-3.3-0.9c-0.8-0.6-1.2-1.5-1.2-2.7c0-0.5,0.1-1,0.2-1.4
			c0.2-0.4,0.4-1,0.7-1.6l0.9-7.1c0.6-0.5,1.5-0.7,2.5-0.7c0.9,0,1.4,0.6,1.5,1.8c0,0.4,0.1,0.8,0.1,1.3c0,0.5-0.1,1-0.2,1.5
			c-0.8,2.8-1.2,4.6-1.2,5.5c0,0.7,0.4,1.1,1.3,1.1s1.5-0.3,1.9-0.8s0.7-1.2,1-2c0.5-2.2,1-4,1.5-5.5s0.7-2.3,0.9-2.6
			c0.2-0.5,0.6-0.7,1.1-0.8c0.6,0,1.1,0.4,1.6,1.2c0.5,0.8,0.8,1.4,0.8,1.8c0,1.4-0.9,4.9-2.6,10.6c1.3-1,2.6-2.3,3.9-3.8
			c0.4-0.5,0.8-1,1.1-1.3c0.3-0.3,0.5-0.5,0.7-0.5c0.3,0,0.4,0.3,0.4,1c0,1.3-0.7,2.7-2.1,4.4s-3.1,3-5.2,3.9
			c-0.2,0.8-0.5,1.6-0.8,2.3s-0.6,1.4-1.1,1.9c-1,1.2-2.4,1.7-4.4,1.7c-1.3,0-2.4-0.4-3.4-1.1c-0.9-0.8-1.4-1.7-1.4-2.8
			c0-0.6,0.2-1.2,0.6-1.5s1-0.7,1.8-0.9s1.6-0.5,2.6-0.7c1-0.2,2.1-0.4,3.2-0.7C77.8,25.9,78,25,78.1,24.5z M74,32.6
			c0.9,0,1.8-0.8,2.5-2.5c-0.7,0.1-1.4,0.2-1.9,0.3c-0.6,0.1-1,0.1-1.4,0.2C72.4,30.8,72,31,72,31.3c0,0.4,0.2,0.7,0.7,1
			S73.6,32.6,74,32.6z"/>
		<path class="st2" d="M90.5,25.8c-0.5,0.6-0.9,0.9-1.2,0.9c-0.6,0-1.1-0.1-1.6-0.4c-0.5-0.3-0.7-0.5-0.7-0.8c0,0,0.1-0.2,0.3-0.4
			c1.3-1.5,2.5-3.1,3.8-4.7c-0.4-1.6-0.8-2.6-1.2-3c-0.2-0.2-0.3-0.3-0.5-0.3c-0.8,0-1.3-0.2-1.7-0.6s-0.5-0.8-0.5-1.3
			c0-0.7,0.3-1.5,0.9-2.3c0.6-0.8,1.2-1.2,1.9-1.2s1.4,0.4,2.2,1.2c0.7,0.8,1.4,1.8,2,3l0.1,0.3c0.3-0.3,0.5-0.6,0.8-1
			c1.1-1.3,1.7-2.2,1.9-2.6c0.2-0.4,0.4-0.6,0.7-0.6c0.5,0,1,0.1,1.6,0.3c0.5,0.2,0.8,0.5,0.8,0.9c0,0.4-0.1,0.7-0.4,1
			c-0.2,0.3-0.6,0.6-1,1c-0.4,0.4-0.9,0.8-1.5,1.4c-0.6,0.6-1.3,1.3-2,2.3c0.5,1.5,0.9,2.5,1.1,2.9c0.5,0.9,0.9,1.4,1.3,1.4
			c0.3,0,0.7-0.2,1.1-0.6c0.4-0.4,0.9-0.8,1.3-1.2c0.4-0.5,0.8-0.9,1.2-1.2c0.4-0.4,0.6-0.6,0.8-0.6c0.3,0,0.4,0.3,0.4,1
			c0,1.4-0.7,2.8-2.1,4.1c-1.4,1.3-2.9,2-4.5,2c-0.8,0-1.4-0.3-2-0.9c-0.6-0.6-1.1-1.4-1.6-2.3C91.5,24.4,91,25.2,90.5,25.8z"/>
	</g>
</g>
</svg>
